Coordinates
version=1
nRows=20
nColumns=38
inDegrees=no

Units are S.I. units (second, meters, Newtons, ...)
If the header above contains a line with 'inDegrees', this indicates whether rotational values are in degrees (yes) or radians (no).

endheader
time	pelvis_tilt	pelvis_list	pelvis_rotation	pelvis_tx	pelvis_ty	pelvis_tz	hip_flexion_r	hip_adduction_r	hip_rotation_r	knee_angle_r	ankle_angle_r	subtalar_angle_r	mtp_angle_r	hip_flexion_l	hip_adduction_l	hip_rotation_l	knee_angle_l	ankle_angle_l	subtalar_angle_l	mtp_angle_l	lumbar_extension	lumbar_bending	lumbar_rotation	arm_flex_r	arm_add_r	arm_rot_r	elbow_flex_r	pro_sup_r	wrist_flex_r	wrist_dev_r	arm_flex_l	arm_add_l	arm_rot_l	elbow_flex_l	pro_sup_l	wrist_flex_l	wrist_dev_l
0	-0.104771	1.23894	-1.3302	0.668773	1.91961	1.0194	0.161278	0.102273	-0.275024	0.321222	-0.175191	0	0	-0.439144	-0.0860966	-0.217162	0.438199	-0.0791876	0	0	-0.503256	0.308649	0.0975237	-0.0356947	-0.449188	-0.0555254	1.69722	0.620659	0	0	0.402243	-0.501876	0.402337	1.02233	0.560711	0	0
0.01	-0.0963458	1.24106	-1.33433	0.668941	1.91089	1.01791	0.160337	0.0997988	-0.275225	0.317107	-0.173765	0	0	-0.440794	-0.086086	-0.209244	0.450545	-0.0748096	0	0	-0.500172	0.306008	0.0993824	-0.0384151	-0.447771	-0.0625175	1.69632	0.623896	0	0	0.412134	-0.498726	0.412257	1.01566	0.560981	0	0
0.02	-0.0972957	1.24204	-1.33139	0.669153	1.90118	1.01648	0.157648	0.100952	-0.276503	0.31778	-0.172459	0	0	-0.443652	-0.0895544	-0.208418	0.465172	-0.0679421	0	0	-0.498052	0.307323	0.101564	-0.040891	-0.450428	-0.0647036	1.69786	0.610799	0	0	0.415441	-0.497005	0.417142	1.01317	0.562569	0	0
0.03	-0.100351	1.24235	-1.32695	0.669343	1.89119	1.01513	0.154336	0.102808	-0.275904	0.324467	-0.17271	0	0	-0.44692	-0.0934661	-0.206524	0.480513	-0.0642228	0	0	-0.496317	0.309798	0.102419	-0.0417373	-0.451547	-0.0655275	1.69835	0.609392	0	0	0.415268	-0.495193	0.417334	1.01256	0.56091	0	0
0.04	-0.106375	1.24217	-1.31938	0.669534	1.88105	1.01369	0.151234	0.105643	-0.274369	0.338241	-0.173962	0	0	-0.448517	-0.0992877	-0.205518	0.500854	-0.0594981	0	0	-0.494911	0.31367	0.103238	-0.0427996	-0.453112	-0.0661012	1.69967	0.607196	0	0	0.414038	-0.494245	0.416982	1.01333	0.558739	0	0
0.05	-0.112738	1.24098	-1.31108	0.669721	1.87078	1.01225	0.146989	0.108959	-0.271132	0.35778	-0.176411	0	0	-0.450144	-0.105598	-0.203152	0.523323	-0.055368	0	0	-0.494344	0.318219	0.103412	-0.043569	-0.45492	-0.0659405	1.7014	0.60515	0	0	0.412192	-0.49421	0.416508	1.01484	0.557439	0	0
0.06	-0.117459	1.23843	-1.30384	0.669962	1.86036	1.01087	0.139968	0.112654	-0.265697	0.380419	-0.180143	0	0	-0.452793	-0.111853	-0.199743	0.546913	-0.0522846	0	0	-0.495105	0.322944	0.102794	-0.0444356	-0.456881	-0.0654807	1.70396	0.603305	0	0	0.409556	-0.494878	0.41528	1.0174	0.556106	0	0
0.07	-0.120011	1.23442	-1.29804	0.670266	1.84977	1.00958	0.129324	0.116781	-0.260329	0.401013	-0.185269	0	0	-0.456704	-0.118018	-0.195629	0.571319	-0.0503681	0	0	-0.497069	0.327633	0.101344	-0.0454092	-0.45874	-0.0649709	1.70689	0.602134	0	0	0.407164	-0.496566	0.415484	1.02034	0.557255	0	0
0.08	-0.123439	1.22929	-1.29064	0.670551	1.83915	1.00847	0.116779	0.121639	-0.257625	0.411605	-0.194764	0	0	-0.460215	-0.125308	-0.191054	0.598926	-0.0492003	0	0	-0.500023	0.333039	0.0993865	-0.0460832	-0.460449	-0.0642841	1.70966	0.601496	0	0	0.404885	-0.498864	0.416356	1.02358	0.559236	0	0
0.09	-0.130217	1.22383	-1.2805	0.67066	1.82868	1.00769	0.105431	0.126338	-0.257922	0.407964	-0.21052	0	0	-0.461736	-0.13339	-0.185074	0.630547	-0.0497125	0	0	-0.504045	0.339369	0.0987487	-0.0463184	-0.461788	-0.0640019	1.71186	0.60236	0	0	0.402279	-0.498889	0.413977	1.02615	0.556781	0	0
0.1	-0.140849	1.21893	-1.26831	0.670503	1.81828	1.00726	0.0958591	0.131716	-0.262349	0.397815	-0.233028	0	0	-0.460012	-0.14235	-0.180348	0.667028	-0.0521561	0	0	-0.508129	0.346329	0.100279	-0.0462003	-0.462331	-0.0642003	1.71294	0.605356	0	0	0.4	-0.497655	0.411459	1.02677	0.555905	0	0
0.11	-0.154433	1.21559	-1.25597	0.669933	1.80787	1.00713	0.0882942	0.138574	-0.268039	0.393663	-0.257356	0	0	-0.454068	-0.151639	-0.177971	0.708447	-0.0568475	0	0	-0.511347	0.352625	0.104517	-0.0458414	-0.462968	-0.0639061	1.71283	0.604754	0	0	0.397941	-0.496081	0.409512	1.02581	0.556093	0	0
0.12	-0.170476	1.21431	-1.24371	0.668951	1.79753	1.00716	0.083673	0.146221	-0.270274	0.398618	-0.279553	0	0	-0.442244	-0.16038	-0.175716	0.756456	-0.0640806	0	0	-0.513038	0.35777	0.110282	-0.0443306	-0.462077	-0.0632539	1.71084	0.605879	0	0	0.395318	-0.494694	0.406901	1.02416	0.556893	0	0
0.13	-0.185784	1.21431	-1.23399	0.667734	1.78737	1.00733	0.0828923	0.15254	-0.265635	0.412312	-0.28809	0	0	-0.426173	-0.16731	-0.171712	0.808317	-0.0737124	0	0	-0.514437	0.361246	0.116986	-0.0417991	-0.460707	-0.0621326	1.70804	0.607582	0	0	0.392989	-0.493509	0.404586	1.02211	0.558378	0	0
0.14	-0.202042	1.21588	-1.22374	0.666418	1.77733	1.00754	0.0866743	0.158552	-0.253784	0.43337	-0.29001	0	0	-0.404627	-0.173973	-0.166414	0.865298	-0.0874309	0	0	-0.514387	0.364037	0.123624	-0.0389436	-0.459106	-0.060698	1.70457	0.610404	0	0	0.390339	-0.492223	0.401423	1.02001	0.559112	0	0
0.15	-0.218519	1.21652	-1.21252	0.665077	1.76744	1.00804	0.0893537	0.166307	-0.237834	0.455788	-0.282471	0	0	-0.381298	-0.181295	-0.159381	0.923591	-0.107827	0	0	-0.515048	0.367144	0.12984	-0.0361421	-0.457141	-0.0593568	1.7007	0.618364	0	0	0.388974	-0.491403	0.400282	1.01725	0.559293	0	0
0.16	-0.231351	1.21138	-1.20107	0.664022	1.75788	1.00921	0.0815579	0.175922	-0.227433	0.467136	-0.279438	0	0	-0.361975	-0.190075	-0.147604	0.980593	-0.129081	0	0	-0.521618	0.372187	0.133565	-0.0324707	-0.456962	-0.0568448	1.69831	0.618466	0	0	0.387973	-0.493104	0.402437	1.01714	0.558736	0	0
0.17	-0.244775	1.20575	-1.18715	0.663132	1.74831	1.01047	0.0703024	0.186013	-0.22265	0.469525	-0.278802	0	0	-0.341292	-0.199589	-0.133482	1.03785	-0.149508	0	0	-0.527681	0.378333	0.135891	-0.0297917	-0.457159	-0.0545335	1.69695	0.618036	0	0	0.388588	-0.494718	0.405032	1.01633	0.557084	0	0
0.18	-0.257548	1.20158	-1.17298	0.662325	1.73873	1.01166	0.0587071	0.195339	-0.221366	0.467315	-0.278575	0	0	-0.317837	-0.208616	-0.118843	1.09499	-0.16848	0	0	-0.531632	0.383932	0.137468	-0.0285457	-0.457708	-0.0526109	1.6965	0.618137	0	0	0.389498	-0.496467	0.408336	1.01561	0.554769	0	0
0.19	-0.267988	1.19909	-1.1614	0.661466	1.72916	1.01276	0.0478134	0.203697	-0.219914	0.465046	-0.276615	0	0	-0.29253	-0.215359	-0.103783	1.14984	-0.187018	0	0	-0.533878	0.38757	0.139261	-0.0288573	-0.457973	-0.0517475	1.69679	0.619701	0	0	0.390491	-0.498135	0.411598	1.01522	0.552315	0	0
